<?xml version="1.0" encoding="UTF-8" standalone="no"?>
<!-- Created with Inkscape (http://www.inkscape.org/) -->

<svg
   width="210mm"
   height="297mm"
   viewBox="0 0 210 297"
   version="1.1"
   id="svg5"
   sodipodi:docname="5x5_empty.svg"
   inkscape:version="1.2.1 (9c6d41e410, 2022-07-14)"
   xmlns:inkscape="http://www.inkscape.org/namespaces/inkscape"
   xmlns:sodipodi="http://sodipodi.sourceforge.net/DTD/sodipodi-0.dtd"
   xmlns="http://www.w3.org/2000/svg"
   xmlns:svg="http://www.w3.org/2000/svg">
  <sodipodi:namedview
     id="namedview7"
     pagecolor="#ffffff"
     bordercolor="#000000"
     borderopacity="0.25"
     inkscape:showpageshadow="2"
     inkscape:pageopacity="0.0"
     inkscape:pagecheckerboard="0"
     inkscape:deskcolor="#d1d1d1"
     inkscape:document-units="mm"
     showgrid="false"
     inkscape:zoom="2.1552483"
     inkscape:cx="249.62321"
     inkscape:cy="252.17512"
     inkscape:window-width="1920"
     inkscape:window-height="1001"
     inkscape:window-x="-9"
     inkscape:window-y="-9"
     inkscape:window-maximized="1"
     inkscape:current-layer="layer1" />
  <defs
     id="defs2" />
  <g
     inkscape:label="Layer 1"
     inkscape:groupmode="layer"
     id="layer1">
    <rect
       style="fill:#e3e2db;stroke-width:0.181288"
       id="rect478"
       width="20"
       height="20"
       x="10"
       y="10"
       ry="3"
       rx="3" />
    <rect
       style="fill:#e3e2db;stroke-width:0.181288"
       id="rect478-8"
       width="20"
       height="20"
       x="33"
       y="10"
       ry="3"
       rx="3" />
    <rect
       style="fill:#e3e2db;stroke-width:0.181288"
       id="rect478-8-5"
       width="20"
       height="20"
       x="56"
       y="10"
       ry="3"
       rx="3" />
    <rect
       style="fill:#e3e2db;stroke-width:0.181288"
       id="rect478-8-1"
       width="20"
       height="20"
       x="79"
       y="10"
       ry="3"
       rx="3" />
    <rect
       style="fill:#e3e2db;stroke-width:0.181288"
       id="rect478-8-5-2"
       width="20"
       height="20"
       x="102"
       y="10"
       ry="3"
       rx="3" />
    <rect
       style="fill:#e3e2db;stroke-width:0.181288"
       id="rect478-8-1-7"
       width="20"
       height="20"
       x="79"
       y="33"
       ry="3"
       rx="3" />
    <rect
       style="fill:#e3e2db;stroke-width:0.181288"
       id="rect478-8-5-2-8"
       width="20"
       height="20"
       x="102"
       y="33"
       ry="3"
       rx="3" />
    <rect
       style="fill:#e3e2db;stroke-width:0.181288"
       id="rect478-8-1-7-6"
       width="20"
       height="20"
       x="79"
       y="56"
       ry="3"
       rx="3" />
    <rect
       style="fill:#e3e2db;stroke-width:0.181288"
       id="rect478-8-5-2-8-4"
       width="20"
       height="20"
       x="102"
       y="56"
       ry="3"
       rx="3" />
    <rect
       style="fill:#e3e2db;stroke-width:0.181288"
       id="rect478-1"
       width="20"
       height="20"
       x="10"
       y="33"
       ry="3"
       rx="3" />
    <rect
       style="fill:#e3e2db;stroke-width:0.181288"
       id="rect478-8-7"
       width="20"
       height="20"
       x="33"
       y="33"
       ry="3"
       rx="3" />
    <rect
       style="fill:#e3e2db;stroke-width:0.181288"
       id="rect478-8-5-4"
       width="20"
       height="20"
       x="56.000004"
       y="33"
       ry="3"
       rx="3" />
    <rect
       style="fill:#e3e2db;stroke-width:0.181288"
       id="rect478-86"
       width="20"
       height="20"
       x="10"
       y="56"
       ry="3"
       rx="3" />
    <rect
       style="fill:#e3e2db;stroke-width:0.181288"
       id="rect478-8-0"
       width="20"
       height="20"
       x="33.000004"
       y="56"
       ry="3"
       rx="3" />
    <rect
       style="fill:#e3e2db;stroke-width:0.181288"
       id="rect478-8-5-1"
       width="20"
       height="20"
       x="56.000011"
       y="56"
       ry="3"
       rx="3" />
    <rect
       style="fill:#e3e2db;stroke-width:0.181288"
       id="rect478-8-1-7-6-0"
       width="20"
       height="20"
       x="79"
       y="79"
       ry="3"
       rx="3" />
    <rect
       style="fill:#e3e2db;stroke-width:0.181288"
       id="rect478-8-5-2-8-4-5"
       width="20"
       height="20"
       x="102"
       y="79"
       ry="3"
       rx="3" />
    <rect
       style="fill:#e3e2db;stroke-width:0.181288"
       id="rect478-86-5"
       width="20"
       height="20"
       x="10"
       y="79"
       ry="3"
       rx="3" />
    <rect
       style="fill:#e3e2db;stroke-width:0.181288"
       id="rect478-8-0-4"
       width="20"
       height="20"
       x="33.000004"
       y="79"
       ry="3"
       rx="3" />
    <rect
       style="fill:#e3e2db;stroke-width:0.181288"
       id="rect478-8-5-1-8"
       width="20"
       height="20"
       x="56.000011"
       y="79"
       ry="3"
       rx="3" />
    <rect
       style="fill:#e3e2db;stroke-width:0.181288"
       id="rect478-8-1-7-6-0-6"
       width="20"
       height="20"
       x="79"
       y="102"
       ry="3"
       rx="3" />
    <rect
       style="fill:#e3e2db;stroke-width:0.181288"
       id="rect478-8-5-2-8-4-5-2"
       width="20"
       height="20"
       x="102"
       y="102"
       ry="3"
       rx="3" />
    <rect
       style="fill:#e3e2db;stroke-width:0.181288"
       id="rect478-86-5-7"
       width="20"
       height="20"
       x="10"
       y="102"
       ry="3"
       rx="3" />
    <rect
       style="fill:#e3e2db;stroke-width:0.181288"
       id="rect478-8-0-4-0"
       width="20"
       height="20"
       x="33.000008"
       y="102"
       ry="3"
       rx="3" />
    <rect
       style="fill:#e3e2db;stroke-width:0.181288"
       id="rect478-8-5-1-8-8"
       width="20"
       height="20"
       x="56.000015"
       y="102"
       ry="3"
       rx="3" />
  </g>
</svg>
