<?xml version="1.0" encoding="UTF-8" standalone="no"?>
<!-- Created with Inkscape (http://www.inkscape.org/) -->

<svg
   width="210mm"
   height="297mm"
   viewBox="0 0 210 297"
   version="1.1"
   id="svg5"
   inkscape:version="1.2.1 (9c6d41e410, 2022-07-14)"
   sodipodi:docname="Flip.svg"
   inkscape:export-filename="Flip.png"
   inkscape:export-xdpi="96"
   inkscape:export-ydpi="96"
   xmlns:inkscape="http://www.inkscape.org/namespaces/inkscape"
   xmlns:sodipodi="http://sodipodi.sourceforge.net/DTD/sodipodi-0.dtd"
   xmlns="http://www.w3.org/2000/svg"
   xmlns:svg="http://www.w3.org/2000/svg">
  <sodipodi:namedview
     id="namedview7"
     pagecolor="#ffffff"
     bordercolor="#000000"
     borderopacity="0.25"
     inkscape:showpageshadow="2"
     inkscape:pageopacity="0.0"
     inkscape:pagecheckerboard="0"
     inkscape:deskcolor="#d1d1d1"
     inkscape:document-units="mm"
     showgrid="false"
     inkscape:zoom="0.72515432"
     inkscape:cx="69.640349"
     inkscape:cy="270.9768"
     inkscape:window-width="2400"
     inkscape:window-height="1271"
     inkscape:window-x="2391"
     inkscape:window-y="-9"
     inkscape:window-maximized="1"
     inkscape:current-layer="layer1" />
  <defs
     id="defs2" />
  <g
     inkscape:label="Layer 1"
     inkscape:groupmode="layer"
     id="layer1">
    <rect
       style="fill:#e3e2db;stroke-width:0.181288"
       id="rect478"
       width="20"
       height="20"
       x="10"
       y="10"
       ry="3"
       rx="3" />
    <rect
       style="fill:#ff0000;stroke-width:0.181288"
       id="rect478-8-5-0"
       width="20"
       height="20"
       x="33"
       y="10"
       ry="3"
       rx="3" />
    <path
       id="rect478-8"
       style="fill:#0000ff;stroke-width:0.181288;fill-opacity:1"
       d="M 35.99987 9.9999064 C 34.337872 9.9999064 33.000053 11.338244 33.000053 13.00024 L 33.000053 26.999902 C 33.000053 27.830901 33.334281 28.580954 33.876485 29.123287 L 52.123433 10.876855 C 51.581229 10.334522 50.831047 9.9999064 50.000049 9.9999064 L 35.99987 9.9999064 z " />
    <rect
       style="fill:#ff0000;stroke-width:0.181288"
       id="rect478-8-5-0-4"
       width="20"
       height="20"
       x="10"
       y="33.000095"
       ry="3"
       rx="3" />
    <path
       id="rect478-8-6"
       style="fill:#0000ff;fill-opacity:1;stroke-width:0.181288"
       d="m 12.99987,33 c -1.661998,0 -2.999817,1.338337 -2.999817,3.000333 v 13.999662 c 0,0.830999 0.334228,1.581052 0.876432,2.123385 L 29.123433,33.876948 C 28.581229,33.334615 27.831047,33 27.000049,33 Z" />
    <rect
       style="fill:#ff0000;stroke-width:0.181288"
       id="rect478-8-5-0-4-2"
       width="20"
       height="20"
       x="33"
       y="33.000095"
       ry="3"
       rx="3" />
    <path
       id="rect478-8-6-7"
       style="fill:#0000ff;fill-opacity:1;stroke-width:0.181288"
       d="m 35.999871,33 c -1.661998,0 -2.999817,1.338337 -2.999817,3.000333 v 13.999662 c 0,0.830999 0.334228,1.581052 0.876432,2.123385 L 52.123434,33.876948 C 51.58123,33.334615 50.831048,33 50.00005,33 Z" />
    <rect
       style="fill:#ff0000;stroke-width:0.181288"
       id="rect478-8-5-0-4-2-7"
       width="20"
       height="20"
       x="33"
       y="56.000095"
       ry="3"
       rx="3" />
    <path
       id="rect478-8-6-7-8"
       style="fill:#0000ff;fill-opacity:1;stroke-width:0.181288"
       d="m 35.999872,56 c -1.661998,0 -2.999817,1.338337 -2.999817,3.000333 v 13.999662 c 0,0.830999 0.334228,1.581052 0.876432,2.123385 L 52.123435,56.876948 C 51.581231,56.334615 50.831049,56 50.000051,56 Z" />
    <rect
       style="fill:#ff0000;stroke-width:0.181288"
       id="rect478-8-5-0-4-2-7-3"
       width="20"
       height="20"
       x="56"
       y="33.000095"
       ry="3"
       rx="3" />
    <path
       id="rect478-8-6-7-8-1"
       style="fill:#0000ff;fill-opacity:1;stroke-width:0.181288"
       d="m 58.999873,33 c -1.661998,0 -2.999817,1.338337 -2.999817,3.000333 v 13.999662 c 0,0.830999 0.334228,1.581052 0.876432,2.123385 L 75.123436,33.876948 C 74.581232,33.334615 73.83105,33 73.000052,33 Z" />
    <rect
       style="fill:#e3e2db;stroke-width:0.181288"
       id="rect478-8-5"
       width="20"
       height="20"
       x="56"
       y="10"
       ry="3"
       rx="3" />
    <rect
       style="fill:#e3e2db;stroke-width:0.181288"
       id="rect478-86"
       width="20"
       height="20"
       x="10"
       y="56"
       ry="3"
       rx="3" />
    <rect
       style="fill:#e3e2db;stroke-width:0.181288"
       id="rect478-8-5-1"
       width="20"
       height="20"
       x="56.000011"
       y="56"
       ry="3"
       rx="3" />
    <circle
       style="fill:#000000;stroke-width:0.267162"
       id="path777"
       cx="43"
       cy="43"
       r="3.5" />
  </g>
</svg>
