<?xml version="1.0" encoding="UTF-8" standalone="no"?>
<!-- Created with Inkscape (http://www.inkscape.org/) -->

<svg
   width="210mm"
   height="297mm"
   viewBox="0 0 210 297"
   version="1.1"
   id="svg5"
   sodipodi:docname="Lock.svg"
   inkscape:version="1.2.1 (9c6d41e410, 2022-07-14)"
   inkscape:export-filename="Lock.png"
   inkscape:export-xdpi="96"
   inkscape:export-ydpi="96"
   xmlns:inkscape="http://www.inkscape.org/namespaces/inkscape"
   xmlns:sodipodi="http://sodipodi.sourceforge.net/DTD/sodipodi-0.dtd"
   xmlns="http://www.w3.org/2000/svg"
   xmlns:svg="http://www.w3.org/2000/svg">
  <sodipodi:namedview
     id="namedview7"
     pagecolor="#ffffff"
     bordercolor="#000000"
     borderopacity="0.25"
     inkscape:showpageshadow="2"
     inkscape:pageopacity="0.0"
     inkscape:pagecheckerboard="0"
     inkscape:deskcolor="#d1d1d1"
     inkscape:document-units="mm"
     showgrid="false"
     inkscape:zoom="2.1552483"
     inkscape:cx="217.37635"
     inkscape:cy="116.69189"
     inkscape:window-width="2400"
     inkscape:window-height="1271"
     inkscape:window-x="2391"
     inkscape:window-y="-9"
     inkscape:window-maximized="1"
     inkscape:current-layer="layer1" />
  <defs
     id="defs2" />
  <g
     inkscape:label="Layer 1"
     inkscape:groupmode="layer"
     id="layer1">
    <rect
       style="fill:#e3e2db;stroke-width:0.181288"
       id="rect478"
       width="20"
       height="20"
       x="10"
       y="10"
       ry="3"
       rx="3" />
    <rect
       style="fill:#e3e2db;stroke-width:0.181288"
       id="rect478-8"
       width="20"
       height="20"
       x="33"
       y="10"
       ry="3"
       rx="3" />
    <rect
       style="fill:#e3e2db;stroke-width:0.181288"
       id="rect478-8-5"
       width="20"
       height="20"
       x="56"
       y="10"
       ry="3"
       rx="3" />
    <rect
       style="fill:#e3e2db;stroke-width:0.181288"
       id="rect478-1"
       width="20"
       height="20"
       x="10"
       y="33"
       ry="3"
       rx="3" />
    <rect
       style="fill:#e3e2db;stroke-width:0.181288"
       id="rect478-8-7"
       width="20"
       height="20"
       x="33"
       y="33"
       ry="3"
       rx="3" />
    <rect
       style="fill:#e3e2db;stroke-width:0.181288"
       id="rect478-8-5-4"
       width="20"
       height="20"
       x="56.000004"
       y="33"
       ry="3"
       rx="3" />
    <rect
       style="fill:#e3e2db;stroke-width:0.181288"
       id="rect478-86"
       width="20"
       height="20"
       x="10"
       y="56"
       ry="3"
       rx="3" />
    <rect
       style="fill:#e3e2db;stroke-width:0.181288"
       id="rect478-8-0"
       width="20"
       height="20"
       x="33.000004"
       y="56"
       ry="3"
       rx="3" />
    <rect
       style="fill:#e3e2db;stroke-width:0.181288"
       id="rect478-8-5-1"
       width="20"
       height="20"
       x="56.000011"
       y="56"
       ry="3"
       rx="3" />
    <path
       id="path3308-6"
       style="fill:#000000;stroke-width:0.272161"
       d="m 42.999922,15.25 a 2.5,2.5 0 0 0 -2.500106,2.499589 2.5,2.5 0 0 0 2.500106,2.500106 2.5,2.5 0 0 0 2.500106,-2.500106 A 2.5,2.5 0 0 0 42.999922,15.25 Z m 0,0.999939 a 1.5,1.5 0 0 1 1.500167,1.49965 1.5,1.5 0 0 1 -1.500167,1.500167 1.5,1.5 0 0 1 -1.500167,-1.500167 1.5,1.5 0 0 1 1.500167,-1.49965 z" />
    <rect
       style="fill:#000000;stroke-width:0.264583"
       id="rect3254-1"
       width="7"
       height="7"
       x="39.5"
       y="17.749834"
       rx="1"
       ry="1" />
    <path
       id="path3308-6-7"
       style="fill:#000000;stroke-width:0.272161"
       d="m 42.999923,38.25 a 2.5,2.5 0 0 0 -2.500106,2.499589 2.5,2.5 0 0 0 2.500106,2.500106 2.5,2.5 0 0 0 2.500106,-2.500106 A 2.5,2.5 0 0 0 42.999923,38.25 Z m 0,0.999939 a 1.5,1.5 0 0 1 1.500167,1.49965 1.5,1.5 0 0 1 -1.500167,1.500167 1.5,1.5 0 0 1 -1.500167,-1.500167 1.5,1.5 0 0 1 1.500167,-1.49965 z" />
    <rect
       style="fill:#000000;stroke-width:0.264583"
       id="rect3254-1-8"
       width="7"
       height="7"
       x="39.5"
       y="40.749836"
       rx="1"
       ry="1" />
    <path
       id="path3308-6-7-7"
       style="fill:#000000;stroke-width:0.272161"
       d="m 42.999923,61.25 a 2.5,2.5 0 0 0 -2.500106,2.499589 2.5,2.5 0 0 0 2.500106,2.500106 2.5,2.5 0 0 0 2.500106,-2.500106 A 2.5,2.5 0 0 0 42.999923,61.25 Z m 0,0.999939 a 1.5,1.5 0 0 1 1.500167,1.49965 1.5,1.5 0 0 1 -1.500167,1.500167 1.5,1.5 0 0 1 -1.500167,-1.500167 1.5,1.5 0 0 1 1.500167,-1.49965 z" />
    <rect
       style="fill:#000000;stroke-width:0.264583"
       id="rect3254-1-8-2"
       width="7"
       height="7"
       x="39.5"
       y="63.749836"
       rx="1"
       ry="1" />
  </g>
</svg>
